<?xml version="1.0" encoding="utf-8"?>
<!-- Generator: Adobe Illustrator 23.1.0, SVG Export Plug-In . SVG Version: 6.00 Build 0)  -->
<svg version="1.1" id="Camada_1" xmlns="http://www.w3.org/2000/svg" xmlns:xlink="http://www.w3.org/1999/xlink" x="0px" y="0px"
	 viewBox="0 0 1792 1792" style="enable-background:new 0 0 1792 1792;" xml:space="preserve">
<style type="text/css">
	.st0{fill:#FFFFFF;}
</style>
<path class="st0" d="M1600,736v192c0,26.7-9.3,49.3-28,68s-41.3,28-68,28h-416v416c0,26.7-9.3,49.3-28,68s-41.3,28-68,28H800
	c-26.7,0-49.3-9.3-68-28s-28-41.3-28-68v-416H288c-26.7,0-49.3-9.3-68-28s-28-41.3-28-68V736c0-26.7,9.3-49.3,28-68s41.3-28,68-28
	h416V224c0-26.7,9.3-49.3,28-68s41.3-28,68-28h192c26.7,0,49.3,9.3,68,28s28,41.3,28,68v416h416c26.7,0,49.3,9.3,68,28
	S1600,709.3,1600,736z"/>
</svg>
