<?xml version="1.0" encoding="utf-8"?>
<!-- Generator: Adobe Illustrator 23.1.0, SVG Export Plug-In . SVG Version: 6.00 Build 0)  -->
<svg version="1.1" id="Camada_1" xmlns="http://www.w3.org/2000/svg" xmlns:xlink="http://www.w3.org/1999/xlink" x="0px" y="0px"
	 viewBox="0 0 24 24" style="enable-background:new 0 0 24 24;" xml:space="preserve">
<style type="text/css">
	.st0{fill:none;}
	.st1{fill:#FFFFFF;}
</style>
<path class="st0" d="M0,0h24v24H0V0z"/>
<path class="st1" d="M15,1H4C2.9,1,2,1.9,2,3v13c0,0.5,0.5,1,1,1s1-0.5,1-1V4c0-0.5,0.4-1,1-1h10c0.6,0,1-0.5,1-1S15.6,1,15,1z
	 M19,5H8C6.9,5,6,5.9,6,7v14c0,1.1,0.9,2,2,2h11c1.1,0,2-0.9,2-2V7C21,5.9,20.1,5,19,5z M18,21H9c-0.6,0-1-0.5-1-1V8
	c0-0.6,0.4-1,1-1h9c0.5,0,1,0.4,1,1v12C19,20.5,18.5,21,18,21z"/>
</svg>
